<?xml version="1.0" encoding="UTF-8"?><svg id="Layer_2" xmlns="http://www.w3.org/2000/svg" viewBox="0 0 1486.78 237.53"><g id="Layer_1-2"><path d="M203.72,128.04c-.27,29.28-11.84,56.74-32.57,77.34-6.96,6.86-14.45,12.61-22.29,17.12-21.56,12.4-44.87,17.15-69.27,14.14-23.84-2.94-44.89-12.92-62.55-29.66-.72-.68-1.03-1.17-1.03-1.59,0-.39.3-.85.9-1.4,1.59-1.45,3.12-3.01,4.6-4.52.66-.68,1.32-1.35,1.99-2.02,1.2-1.2,1.92-1.92,2.42-1.95h.03c.48,0,1.15.6,2.34,1.65l.15.13c26.3,23.24,56.48,30.63,89.71,21.96,30.16-7.87,54.47-30.3,65.06-59.98,10.68-29.98,5.95-63.09-12.67-88.59-11.85-16.22-26.21-26.05-43.87-30.05-29.7-6.72-59.58,5.27-76.15,30.53-16.51,25.17-15.66,57.35,2.15,81.99,8.87,12.26,19.71,19.24,33.15,21.32,12.38,1.93,24.86-.96,35.11-8.13,10.26-7.17,17.16-17.83,19.44-30.02,2.89-15.5-.87-29.33-11.18-41.1-1.38-1.57-1.35-2.32.16-3.67,2.53-2.28,4.87-4.62,6.94-6.97.68-.76,1.21-1.11,1.67-1.12h0c.48,0,1.05.38,1.84,1.22,22.07,23.57,21.83,61-.56,85.23-23.4,25.32-62.99,26.92-88.28,3.56-16.66-15.39-26.26-36.6-27.04-59.73-.78-23.51,7.62-45.78,23.66-62.72,16.4-17.31,38.57-26.94,62.44-27.08,23.77-.16,46.04,9.16,62.59,26.2,20.34,20.96,31.4,48.62,31.12,77.88Z"/><path d="M187.86,32.19c-.01.35-.25.76-.76,1.24-2.58,2.47-5.22,5.1-7.85,7.84-.59.61-1.05.89-1.47.9-.43-.01-.88-.27-1.43-.83-1.74-1.76-3.66-3.36-5.63-4.97-21.04-17.25-48.75-24.54-75.99-19.98-27.24,4.56-51.04,20.43-65.32,43.56-21.04,34.11-19,76.81,5.21,108.79,14.76,19.51,34.22,29.64,57.82,30.1.43.01.86.01,1.3.01,27.75,0,54.43-17.42,65.2-42.74,11.85-27.88,6.3-58.32-14.49-79.43-9.88-10.04-23.76-15.09-38.04-13.87-14.31,1.22-27.15,8.58-35.2,20.17-12.9,18.56-11.5,42.52,3.48,59.63,1.28,1.46,1.27,2.1-.02,3.28-2.61,2.38-5.07,4.84-7.32,7.31-.64.71-1.14,1.04-1.58,1.04h-.01c-.46-.01-1-.38-1.74-1.21-17.96-20.32-21.44-47.83-9.08-71.8,8.61-16.68,24.37-28.42,43.24-32.18,18.89-3.78,37.97,1,52.35,13.1,30.46,25.65,38.59,72.64,18.53,106.96-15.43,26.42-38.32,41.27-68.02,44.16-25.07,2.44-47.12-4.87-65.53-21.72C13.37,171.28.78,143.5.04,113.3c-.76-30.58,10.68-59.37,32.17-81.09,1.56-1.27,3.11-2.59,4.61-3.87,3.24-2.77,6.59-5.63,10.16-8C83.41-3.81,121.84-6.47,161.2,12.46c9,4.33,17.67,10.5,25.78,18.33.6.58.88,1.02.88,1.4Z"/><path d="M374.12,83.19c-9.53-9.16-21.14-13.76-34.85-13.76s-25.34,4.56-34.91,13.69c-9.57,9.12-14.35,21.02-14.35,35.71s4.78,26.46,14.35,35.58c9.57,9.12,21.21,13.68,34.91,13.68s25.32-4.56,34.85-13.68c9.53-9.12,14.29-20.98,14.29-35.58s-4.76-26.48-14.29-35.64ZM358.37,139.93c-5.43,4.89-11.8,7.34-19.1,7.34s-13.68-2.45-19.16-7.34c-5.48-4.9-8.21-11.98-8.21-21.23s2.73-16.36,8.21-21.3c5.48-4.93,11.86-7.41,19.16-7.41s13.66,2.47,19.1,7.41c5.42,4.94,8.14,12.04,8.14,21.3s-2.72,16.33-8.14,21.23Z"/><path d="M459.06,127.78c5.87-2.06,10.45-5.41,13.75-10.08,3.29-4.68,4.94-10.22,4.94-16.62,0-8.55-2.82-15.62-8.48-21.23-5.65-5.62-13.05-8.42-22.23-8.42h-37.51v94.66h21.09v-35.24h7.48l16.95,35.24h23.23l-19.22-38.31ZM452.92,109.55c-2.32,2.1-5.62,3.14-9.88,3.14h-12.43v-22.96h12.43c4.26,0,7.56,1.02,9.88,3.07,2.31,2.05,3.46,4.85,3.46,8.41s-1.15,6.26-3.46,8.34Z"/><path d="M500.04,71.43v94.66h21.37v-94.66h-21.37Z"/><path d="M585.95,133.39h28.43c-.8,3.64-3.15,7.14-7.08,10.48-3.91,3.34-9.35,5.01-16.28,5.01-8.11,0-14.87-2.64-20.3-7.94-5.42-5.3-8.14-12.66-8.14-22.1s2.82-17.07,8.48-22.09c5.65-5.03,12.13-7.54,19.42-7.54s12.35,1.76,16.23,5.27c3.87,3.52,6.3,7.27,7.28,11.27l20.29-7.08c-2.49-7.92-7.34-14.77-14.56-20.56-7.2-5.79-16.95-8.68-29.24-8.68-13.7,0-25.34,4.61-34.91,13.82-9.57,9.22-14.35,21.08-14.35,35.58s4.61,26.46,13.82,35.58c9.22,9.12,20.58,13.68,34.11,13.68,6.32,0,11.75-1.11,16.29-3.34s7.96-4.99,10.28-8.28l1.33,9.61h17.08v-50.6h-48.19v17.89Z"/><path d="M658.57,71.43v94.66h21.37v-94.66h-21.37Z"/><path d="M768.18,71.43v57.54l-35.51-57.54h-25.64v94.66h20.96v-62.21l38.99,62.21h22.29v-94.66h-21.1Z"/><path d="M915.64,119.97c-4.76-5.21-11.5-8.62-20.23-10.22l-12.68-2.4c-6.23-1.16-9.35-4.19-9.35-9.08,0-2.76,1.2-5.15,3.6-7.15,2.41-2,5.52-3.01,9.35-3.01,5.07,0,8.86,1.25,11.35,3.74,2.49,2.49,3.96,5.21,4.41,8.14l18.96-5.34c-.53-3.03-1.53-5.91-3-8.67-1.47-2.76-3.5-5.42-6.07-8.01-2.58-2.58-6.07-4.65-10.49-6.2-4.4-1.56-9.41-2.34-15.01-2.34-9.26,0-17.22,2.9-23.9,8.68-6.67,5.79-10.02,13.03-10.02,21.76,0,7.03,2.29,13.04,6.88,18.02,4.58,4.99,10.88,8.24,18.89,9.75l12.95,2.4c3.21.63,5.69,1.77,7.48,3.41,1.77,1.65,2.66,3.68,2.66,6.07,0,2.94-1.2,5.32-3.6,7.14-2.41,1.83-5.66,2.74-9.75,2.74-6.14,0-10.84-1.53-14.09-4.6-3.25-3.07-5.09-6.97-5.54-11.68l-19.35,4.67c.8,7.83,4.46,14.84,11.01,21.02,6.54,6.19,15.78,9.28,27.71,9.28,10.68,0,19.18-3.01,25.5-9,6.32-6.01,9.48-12.98,9.48-20.9,0-6.95-2.39-13.02-7.15-18.22Z"/><path d="M936,71.43v20.16h29.1v74.5h21.1v-74.5h29.24v-20.16h-79.44Z"/><path d="M1111.44,83.19c-9.53-9.16-21.14-13.76-34.85-13.76s-25.34,4.56-34.91,13.69c-9.57,9.12-14.35,21.02-14.35,35.71s4.78,26.46,14.35,35.58c9.57,9.12,21.21,13.68,34.91,13.68s25.32-4.56,34.85-13.68c9.53-9.12,14.29-20.98,14.29-35.58s-4.76-26.48-14.29-35.64ZM1095.69,139.93c-5.43,4.89-11.8,7.34-19.1,7.34s-13.68-2.45-19.16-7.34c-5.47-4.9-8.21-11.98-8.21-21.23s2.74-16.36,8.21-21.3c5.48-4.93,11.86-7.41,19.16-7.41s13.66,2.47,19.1,7.41c5.42,4.94,8.14,12.04,8.14,21.3s-2.72,16.33-8.14,21.23Z"/><path d="M1197.01,127.78c5.87-2.06,10.46-5.41,13.76-10.08,3.29-4.68,4.93-10.22,4.93-16.62,0-8.55-2.82-15.62-8.47-21.23-5.66-5.62-13.06-8.42-22.23-8.42h-37.52v94.66h21.09v-35.24h7.48l16.95,35.24h23.23l-19.22-38.31ZM1190.88,109.55c-2.31,2.1-5.61,3.14-9.88,3.14h-12.43v-22.96h12.43c4.27,0,7.57,1.02,9.88,3.07,2.31,2.05,3.47,4.85,3.47,8.41s-1.16,6.26-3.47,8.34Z"/><path d="M1238,71.43v94.66h21.37v-94.66h-21.37Z"/><path d="M1307.56,146.07v-18.16h35.25v-18.55h-35.25v-18.03h38.85v-19.89h-59.95v94.66h60.08v-20.02h-38.98Z"/><path d="M1430.72,119.97c-4.76-5.21-11.51-8.62-20.23-10.22l-12.69-2.4c-6.22-1.16-9.35-4.19-9.35-9.08,0-2.76,1.2-5.15,3.61-7.15,2.4-2,5.52-3.01,9.35-3.01,5.07,0,8.86,1.25,11.35,3.74,2.48,2.49,3.95,5.21,4.4,8.14l18.96-5.34c-.53-3.03-1.53-5.91-3-8.67-1.46-2.76-3.5-5.42-6.07-8.01-2.58-2.58-6.07-4.65-10.47-6.2-4.41-1.56-9.41-2.34-15.03-2.34-9.26,0-17.22,2.9-23.89,8.68-6.68,5.79-10.02,13.03-10.02,21.76,0,7.03,2.29,13.04,6.87,18.02,4.58,4.99,10.88,8.24,18.89,9.75l12.95,2.4c3.21.63,5.7,1.77,7.48,3.41,1.78,1.65,2.67,3.68,2.67,6.07,0,2.94-1.2,5.32-3.61,7.14-2.4,1.83-5.65,2.74-9.74,2.74-6.15,0-10.84-1.53-14.09-4.6-3.25-3.07-5.09-6.97-5.54-11.68l-19.36,4.67c.8,7.83,4.48,14.84,11.02,21.02,6.54,6.19,15.77,9.28,27.71,9.28,10.68,0,19.17-3.01,25.5-9,6.32-6.01,9.47-12.98,9.47-20.9,0-6.95-2.38-13.02-7.14-18.22Z"/><path d="M1462.71,71.79h-4.62v-2.36h11.78v2.36h-4.62v12.14h-2.55v-12.14Z"/><path d="M1472.53,69.43h2.71l4.41,6.86,4.41-6.86h2.71v14.5h-2.55v-10.4l-4.58,6.83h-.08l-4.54-6.79v10.35h-2.51v-14.5Z"/></g></svg>