<?xml version="1.0" encoding="UTF-8"?><svg id="Layer_2" xmlns="http://www.w3.org/2000/svg" viewBox="0 0 1140.8 288.92"><g id="Layer_1-2"><path d="M247.8,155.75c-.33,35.61-14.41,69.02-39.62,94.08-8.46,8.34-17.58,15.34-27.11,20.83-26.22,15.09-54.58,20.86-84.25,17.2-29-3.57-54.6-15.72-76.08-36.07-.88-.83-1.25-1.42-1.25-1.93,0-.47.37-1.03,1.09-1.7,1.93-1.76,3.79-3.66,5.59-5.5.8-.83,1.61-1.64,2.42-2.46,1.46-1.46,2.33-2.33,2.94-2.37h.04c.58,0,1.4.73,2.84,2.01l.18.16c31.99,28.27,68.7,37.25,109.12,26.71,36.68-9.57,66.26-36.85,79.13-72.96,13-36.46,7.23-76.74-15.42-107.75-14.42-19.73-31.88-31.68-53.36-36.55-36.12-8.17-72.47,6.41-92.63,37.13-20.08,30.61-19.05,69.76,2.61,99.73,10.78,14.92,23.98,23.4,40.33,25.93,15.06,2.35,30.24-1.17,42.71-9.88,12.47-8.72,20.88-21.69,23.65-36.51,3.51-18.86-1.06-35.67-13.6-49.99-1.68-1.91-1.64-2.82.19-4.46,3.08-2.77,5.92-5.62,8.44-8.47.83-.92,1.47-1.35,2.03-1.36h.01c.58,0,1.28.46,2.24,1.48,26.84,28.67,26.55,74.2-.68,103.67-28.46,30.8-76.62,32.74-107.38,4.33-20.27-18.72-31.94-44.52-32.89-72.66-.95-28.6,9.26-55.68,28.78-76.29,19.95-21.06,46.92-32.77,75.95-32.94,28.91-.19,56,11.14,76.13,31.87,24.74,25.49,38.19,59.14,37.85,94.73Z"/><path d="M228.5,39.15c-.01.43-.3.92-.92,1.51-3.14,3-6.35,6.2-9.54,9.53-.72.74-1.28,1.08-1.79,1.09-.52-.01-1.07-.33-1.74-1.01-2.12-2.14-4.45-4.08-6.84-6.04-25.59-20.98-59.29-29.85-92.44-24.3-33.13,5.54-62.08,24.85-79.45,52.98-25.59,41.49-23.11,93.43,6.33,132.33,17.96,23.73,41.63,36.05,70.33,36.61.52.01,1.05.01,1.58.01,33.75,0,66.21-21.19,79.31-51.99,14.42-33.91,7.66-70.94-17.63-96.62-12.02-12.21-28.9-18.36-46.27-16.88-17.41,1.48-33.02,10.43-42.82,24.53-15.7,22.58-13.99,51.72,4.23,72.53,1.56,1.77,1.54,2.55-.02,3.99-3.17,2.89-6.16,5.88-8.9,8.89-.78.86-1.39,1.26-1.92,1.26h-.01c-.56-.01-1.22-.46-2.12-1.47-21.85-24.72-26.08-58.18-11.04-87.33,10.47-20.29,29.64-34.56,52.59-39.15,22.98-4.6,46.19,1.22,63.67,15.94,37.05,31.2,46.94,88.35,22.54,130.1-18.77,32.13-46.61,50.2-82.73,53.71-30.49,2.97-57.31-5.92-79.71-26.42C16.26,208.34.94,174.54.04,137.81c-.92-37.19,12.98-72.22,39.14-98.64,1.9-1.54,3.78-3.15,5.61-4.71,3.94-3.37,8.01-6.84,12.35-9.73C101.45-4.64,148.2-7.87,196.08,15.15c10.94,5.26,21.5,12.77,31.36,22.3.73.71,1.07,1.24,1.07,1.7Z"/><path d="M443.25,25.41c-12-11.55-26.64-17.33-43.91-17.33s-31.93,5.75-43.99,17.25c-12.06,11.49-18.09,26.49-18.09,45s6.03,33.34,18.09,44.83c12.06,11.49,26.72,17.24,43.99,17.24s31.9-5.75,43.91-17.24c12-11.49,18.01-26.44,18.01-44.83s-6-33.37-18.01-44.91ZM423.41,96.91c-6.85,6.16-14.86,9.25-24.06,9.25s-17.24-3.09-24.14-9.25c-6.9-6.18-10.34-15.09-10.34-26.75s3.44-20.61,10.34-26.84c6.9-6.22,14.94-9.33,24.14-9.33s17.21,3.12,24.06,9.33c6.83,6.23,10.26,15.17,10.26,26.84s-3.42,20.57-10.26,26.75Z"/><path d="M550.28,81.6c7.4-2.59,13.17-6.82,17.32-12.7,4.15-5.89,6.23-12.88,6.23-20.95,0-10.77-3.56-19.68-10.69-26.75-7.12-7.08-16.45-10.61-28.01-10.61h-47.26v119.28h26.57v-44.4h9.43l21.36,44.4h29.27l-24.22-48.27ZM542.55,58.63c-2.93,2.65-7.08,3.96-12.45,3.96h-15.66v-28.94h15.66c5.37,0,9.52,1.29,12.45,3.87,2.91,2.58,4.36,6.11,4.36,10.59s-1.45,7.88-4.36,10.51Z"/><path d="M601.93,10.6v119.28h26.92V10.6h-26.92Z"/><path d="M710.18,88.67h35.82c-1.01,4.59-3.97,9-8.92,13.2-4.93,4.2-11.78,6.31-20.52,6.31-10.22,0-18.73-3.33-25.58-10-6.83-6.67-10.26-15.95-10.26-27.85s3.56-21.51,10.69-27.83c7.12-6.34,15.28-9.51,24.46-9.51s15.56,2.22,20.45,6.65c4.87,4.43,7.94,9.16,9.17,14.21l25.57-8.92c-3.14-9.98-9.25-18.61-18.34-25.9-9.08-7.29-21.36-10.94-36.84-10.94-17.27,0-31.93,5.81-43.99,17.42-12.06,11.61-18.09,26.56-18.09,44.83s5.81,33.34,17.42,44.83c11.61,11.49,25.93,17.24,42.98,17.24,7.96,0,14.81-1.4,20.53-4.2,5.72-2.81,10.03-6.28,12.96-10.43l1.68,12.11h21.52v-63.75h-60.72v22.54Z"/><path d="M801.68,10.6v119.28h26.92V10.6h-26.92Z"/><path d="M939.8,10.6v72.51l-44.74-72.51h-32.31v119.28h26.41V51.49l49.13,78.39h28.09V10.6h-26.59Z"/><path d="M421.13,217.72c-6-6.57-14.49-10.86-25.49-12.88l-15.98-3.02c-7.86-1.46-11.78-5.28-11.78-11.44,0-3.48,1.52-6.49,4.54-9.01,3.03-2.52,6.96-3.79,11.78-3.79,6.39,0,11.16,1.57,14.3,4.71,3.14,3.14,5,6.57,5.56,10.26l23.89-6.73c-.67-3.81-1.93-7.45-3.79-10.93-1.85-3.48-4.4-6.83-7.65-10.1-3.25-3.25-7.65-5.85-13.21-7.81-5.55-1.96-11.86-2.95-18.92-2.95-11.67,0-21.7,3.65-30.12,10.94-8.41,7.29-12.62,16.42-12.62,27.42,0,8.86,2.89,16.44,8.67,22.71,5.77,6.28,13.71,10.38,23.81,12.29l16.31,3.02c4.04.79,7.17,2.23,9.43,4.3,2.23,2.08,3.36,4.63,3.36,7.65,0,3.71-1.52,6.7-4.54,9-3.03,2.31-7.13,3.45-12.29,3.45-7.73,0-13.66-1.93-17.75-5.8-4.1-3.87-6.42-8.78-6.98-14.72l-24.38,5.88c1.01,9.87,5.63,18.7,13.87,26.49,8.24,7.8,19.89,11.7,34.91,11.7,13.45,0,24.17-3.79,32.13-11.35,7.96-7.57,11.95-16.35,11.95-26.33,0-8.75-3.01-16.41-9.01-22.96Z"/><path d="M446.79,156.56v25.4h36.67v93.87h26.59v-93.87h36.84v-25.4h-100.1Z"/><path d="M667.84,171.37c-12-11.55-26.64-17.33-43.91-17.33s-31.93,5.75-43.99,17.25c-12.06,11.49-18.09,26.49-18.09,45s6.03,33.34,18.09,44.83c12.06,11.49,26.72,17.24,43.99,17.24s31.9-5.75,43.91-17.24c12-11.49,18.01-26.44,18.01-44.83s-6-33.37-18.01-44.91ZM647.99,242.87c-6.85,6.16-14.86,9.25-24.06,9.25s-17.24-3.09-24.14-9.25c-6.89-6.18-10.34-15.09-10.34-26.75s3.45-20.61,10.34-26.84c6.9-6.22,14.94-9.33,24.14-9.33s17.21,3.12,24.06,9.33c6.83,6.23,10.26,15.17,10.26,26.84s-3.42,20.57-10.26,26.75Z"/><path d="M775.68,227.56c7.4-2.59,13.19-6.82,17.33-12.7,4.15-5.89,6.22-12.88,6.22-20.95,0-10.77-3.56-19.68-10.67-26.75-7.13-7.08-16.46-10.61-28.01-10.61h-47.28v119.28h26.57v-44.4h9.43l21.36,44.4h29.27l-24.22-48.27ZM767.94,204.59c-2.91,2.65-7.06,3.96-12.45,3.96h-15.66v-28.94h15.66c5.38,0,9.53,1.29,12.45,3.87,2.91,2.58,4.38,6.11,4.38,10.59s-1.46,7.88-4.38,10.51Z"/><path d="M827.32,156.56v119.28h26.92v-119.28h-26.92Z"/><path d="M914.97,250.6v-22.88h44.42v-23.38h-44.42v-22.72h48.96v-25.07h-75.54v119.28h75.7v-25.23h-49.12Z"/><path d="M1070.16,217.72c-6-6.57-14.5-10.86-25.49-12.88l-15.99-3.02c-7.84-1.46-11.78-5.28-11.78-11.44,0-3.48,1.52-6.49,4.55-9.01,3.02-2.52,6.96-3.79,11.78-3.79,6.39,0,11.16,1.57,14.3,4.71,3.13,3.14,4.98,6.57,5.55,10.26l23.89-6.73c-.67-3.81-1.93-7.45-3.79-10.93-1.84-3.48-4.4-6.83-7.65-10.1-3.25-3.25-7.65-5.85-13.2-7.81-5.56-1.96-11.86-2.95-18.93-2.95-11.67,0-21.7,3.65-30.1,10.94-8.42,7.29-12.62,16.42-12.62,27.42,0,8.86,2.89,16.44,8.66,22.71,5.77,6.28,13.71,10.38,23.81,12.29l16.31,3.02c4.04.79,7.18,2.23,9.43,4.3,2.24,2.08,3.37,4.63,3.37,7.65,0,3.71-1.52,6.7-4.55,9-3.02,2.31-7.12,3.45-12.27,3.45-7.75,0-13.66-1.93-17.75-5.8-4.1-3.87-6.42-8.78-6.98-14.72l-24.4,5.88c1.01,9.87,5.64,18.7,13.88,26.49,8.24,7.8,19.87,11.7,34.91,11.7,13.45,0,24.16-3.79,32.13-11.35,7.96-7.57,11.94-16.35,11.94-26.33,0-8.75-2.99-16.41-9-22.96Z"/><path d="M1110.47,157.01h-5.82v-2.98h14.85v2.98h-5.82v15.29h-3.21v-15.29Z"/><path d="M1122.85,154.03h3.42l5.56,8.64,5.56-8.64h3.42v18.27h-3.21v-13.1l-5.77,8.61h-.1l-5.72-8.56v13.05h-3.16v-18.27Z"/></g></svg>