<?xml version="1.0" encoding="UTF-8"?><svg id="Layer_2" xmlns="http://www.w3.org/2000/svg" viewBox="0 0 1508.01 541.48"><defs><style>.cls-1{fill:#d39c11;}.cls-2{fill:#e5c470;}</style></defs><g id="Layer_1-2"><path class="cls-1" d="M851.53,161.34c-.34,36.89-14.92,71.5-41.05,97.46-8.77,8.64-18.21,15.89-28.09,21.57-27.17,15.63-56.54,21.61-87.28,17.82-30.04-3.7-56.56-16.29-78.82-37.37-.91-.86-1.3-1.47-1.3-2,0-.49.38-1.07,1.13-1.76,2-1.83,3.93-3.79,5.79-5.69.83-.86,1.66-1.7,2.51-2.54,1.51-1.51,2.42-2.42,3.05-2.46h.04c.6,0,1.45.76,2.95,2.08l.19.16c33.14,29.28,71.17,38.59,113.04,27.67,38-9.91,68.64-38.17,81.98-75.58,13.46-37.77,7.49-79.5-15.97-111.63-14.94-20.44-33.02-32.82-55.28-37.86-37.42-8.46-75.08,6.64-95.96,38.46-20.81,31.71-19.74,72.27,2.71,103.31,11.17,15.45,24.84,24.24,41.78,26.86,15.61,2.43,31.32-1.21,44.25-10.24,12.92-9.03,21.63-22.47,24.5-37.82,3.64-19.53-1.1-36.95-14.09-51.79-1.74-1.98-1.7-2.92.2-4.62,3.19-2.87,6.13-5.82,8.74-8.78.86-.96,1.52-1.4,2.1-1.41h.01c.61,0,1.32.48,2.32,1.54,27.81,29.7,27.51,76.87-.71,107.4-29.48,31.9-79.37,33.92-111.24,4.48-21-19.4-33.09-46.12-34.07-75.27-.98-29.62,9.6-57.68,29.81-79.03,20.67-21.81,48.6-33.94,78.68-34.12,29.95-.2,58.01,11.54,78.87,33.01,25.63,26.41,39.56,61.26,39.21,98.14Z"/><path class="cls-2" d="M831.54,40.56c-.01.44-.31.96-.96,1.56-3.25,3.11-6.57,6.42-9.89,9.87-.74.77-1.32,1.12-1.85,1.13-.54-.01-1.11-.34-1.8-1.05-2.19-2.22-4.61-4.23-7.09-6.26-26.51-21.74-61.42-30.92-95.76-25.18-34.32,5.74-64.31,25.74-82.31,54.89-26.51,42.99-23.94,96.79,6.56,137.08,18.6,24.58,43.12,37.34,72.86,37.92.54.01,1.08.01,1.64.01,34.96,0,68.59-21.95,82.16-53.86,14.94-35.13,7.94-73.49-18.26-100.09-12.46-12.65-29.94-19.02-47.94-17.48-18.04,1.54-34.21,10.81-44.36,25.42-16.26,23.39-14.5,53.58,4.38,75.14,1.61,1.84,1.6,2.65-.03,4.13-3.29,3-6.39,6.1-9.22,9.21-.81.89-1.44,1.31-1.99,1.31h-.01c-.58-.01-1.26-.48-2.19-1.52-22.63-25.61-27.02-60.27-11.44-90.47,10.84-21.02,30.71-35.81,54.48-40.56,23.8-4.76,47.85,1.26,65.96,16.51,38.38,32.32,48.63,91.53,23.35,134.78-19.45,33.29-48.29,52-85.71,55.64-31.59,3.07-59.37-6.13-82.57-27.37-27.9-25.52-43.77-60.53-44.7-98.58-.96-38.53,13.45-74.81,40.54-102.18,1.96-1.6,3.92-3.26,5.81-4.87,4.08-3.49,8.3-7.09,12.8-10.08,45.91-30.44,94.33-33.79,143.93-9.94,11.34,5.45,22.27,13.22,32.48,23.1.76.73,1.11,1.28,1.11,1.76Z"/><path d="M105.98,434.49c-12-11.55-26.64-17.33-43.91-17.33s-31.93,5.75-43.99,17.25c-12.06,11.49-18.09,26.49-18.09,45s6.03,33.34,18.09,44.83c12.06,11.49,26.72,17.24,43.99,17.24s31.9-5.75,43.91-17.24c12-11.49,18.01-26.44,18.01-44.83s-6-33.37-18.01-44.91ZM86.14,505.99c-6.85,6.16-14.86,9.25-24.06,9.25s-17.24-3.09-24.14-9.25c-6.9-6.18-10.34-15.09-10.34-26.75s3.44-20.61,10.34-26.84c6.9-6.22,14.94-9.33,24.14-9.33s17.21,3.12,24.06,9.33c6.83,6.23,10.26,15.17,10.26,26.84s-3.42,20.57-10.26,26.75Z"/><path d="M213.01,490.68c7.4-2.59,13.17-6.82,17.32-12.7,4.15-5.89,6.23-12.88,6.23-20.95,0-10.77-3.56-19.68-10.69-26.75-7.12-7.08-16.45-10.61-28.01-10.61h-47.26v119.28h26.57v-44.4h9.43l21.36,44.4h29.27l-24.22-48.27ZM205.28,467.71c-2.93,2.65-7.08,3.96-12.45,3.96h-15.66v-28.94h15.66c5.37,0,9.52,1.29,12.45,3.87,2.91,2.58,4.36,6.11,4.36,10.59s-1.45,7.88-4.36,10.51Z"/><path d="M264.65,419.68v119.28h26.92v-119.28h-26.92Z"/><path d="M372.91,497.75h35.82c-1.01,4.59-3.97,9-8.92,13.2-4.93,4.2-11.78,6.31-20.52,6.31-10.22,0-18.73-3.33-25.58-10-6.83-6.67-10.26-15.95-10.26-27.85s3.56-21.51,10.69-27.83c7.12-6.34,15.28-9.51,24.46-9.51s15.56,2.22,20.45,6.65c4.87,4.43,7.94,9.16,9.17,14.21l25.57-8.92c-3.14-9.98-9.25-18.61-18.34-25.9-9.08-7.29-21.36-10.94-36.84-10.94-17.27,0-31.93,5.81-43.99,17.42-12.06,11.61-18.09,26.56-18.09,44.83s5.81,33.34,17.42,44.83c11.61,11.49,25.93,17.24,42.98,17.24,7.96,0,14.81-1.4,20.53-4.2,5.72-2.81,10.03-6.28,12.96-10.43l1.68,12.11h21.52v-63.75h-60.72v22.54Z"/><path d="M464.41,419.68v119.28h26.92v-119.28h-26.92Z"/><path d="M602.53,419.68v72.51l-44.74-72.51h-32.31v119.28h26.41v-78.39l49.13,78.39h28.09v-119.28h-26.59Z"/><path d="M788.34,480.84c-6-6.57-14.49-10.86-25.49-12.88l-15.98-3.02c-7.86-1.46-11.78-5.28-11.78-11.44,0-3.48,1.52-6.49,4.54-9.01,3.03-2.52,6.96-3.79,11.78-3.79,6.39,0,11.16,1.57,14.3,4.71,3.14,3.14,5,6.57,5.56,10.26l23.89-6.73c-.67-3.81-1.93-7.45-3.79-10.93-1.85-3.48-4.4-6.83-7.65-10.1-3.25-3.25-7.65-5.85-13.21-7.81-5.55-1.96-11.86-2.95-18.92-2.95-11.67,0-21.7,3.65-30.12,10.94-8.41,7.29-12.62,16.42-12.62,27.42,0,8.86,2.89,16.44,8.67,22.71,5.77,6.28,13.71,10.38,23.81,12.29l16.31,3.02c4.04.79,7.17,2.23,9.43,4.3,2.23,2.08,3.36,4.63,3.36,7.65,0,3.71-1.52,6.7-4.54,9-3.03,2.31-7.13,3.45-12.29,3.45-7.73,0-13.66-1.93-17.75-5.8-4.1-3.87-6.42-8.78-6.98-14.72l-24.38,5.88c1.01,9.87,5.63,18.7,13.87,26.49,8.24,7.8,19.89,11.7,34.91,11.7,13.45,0,24.17-3.79,32.13-11.35,7.96-7.57,11.95-16.35,11.95-26.33,0-8.75-3.01-16.41-9.01-22.96Z"/><path d="M813.99,419.68v25.4h36.67v93.87h26.59v-93.87h36.84v-25.4h-100.1Z"/><path d="M1035.05,434.49c-12-11.55-26.64-17.33-43.91-17.33s-31.93,5.75-43.99,17.25c-12.06,11.49-18.09,26.49-18.09,45s6.03,33.34,18.09,44.83c12.06,11.49,26.72,17.24,43.99,17.24s31.9-5.75,43.91-17.24c12-11.49,18.01-26.44,18.01-44.83s-6-33.37-18.01-44.91ZM1015.2,505.99c-6.85,6.16-14.86,9.25-24.06,9.25s-17.24-3.09-24.14-9.25c-6.89-6.18-10.34-15.09-10.34-26.75s3.45-20.61,10.34-26.84c6.9-6.22,14.94-9.33,24.14-9.33s17.21,3.12,24.06,9.33c6.83,6.23,10.26,15.17,10.26,26.84s-3.42,20.57-10.26,26.75Z"/><path d="M1142.89,490.68c7.4-2.59,13.19-6.82,17.33-12.7,4.15-5.89,6.22-12.88,6.22-20.95,0-10.77-3.56-19.68-10.67-26.75-7.13-7.08-16.46-10.61-28.01-10.61h-47.28v119.28h26.57v-44.4h9.43l21.36,44.4h29.27l-24.22-48.27ZM1135.15,467.71c-2.91,2.65-7.06,3.96-12.45,3.96h-15.66v-28.94h15.66c5.38,0,9.53,1.29,12.45,3.87,2.91,2.58,4.38,6.11,4.38,10.59s-1.46,7.88-4.38,10.51Z"/><path d="M1194.53,419.68v119.28h26.92v-119.28h-26.92Z"/><path d="M1282.18,513.73v-22.88h44.42v-23.38h-44.42v-22.72h48.96v-25.07h-75.54v119.28h75.7v-25.23h-49.12Z"/><path d="M1437.37,480.84c-6-6.57-14.5-10.86-25.49-12.88l-15.99-3.02c-7.84-1.46-11.78-5.28-11.78-11.44,0-3.48,1.52-6.49,4.55-9.01,3.02-2.52,6.96-3.79,11.78-3.79,6.39,0,11.16,1.57,14.3,4.71,3.13,3.14,4.98,6.57,5.55,10.26l23.89-6.73c-.67-3.81-1.93-7.45-3.79-10.93-1.84-3.48-4.4-6.83-7.65-10.1-3.25-3.25-7.65-5.85-13.2-7.81-5.56-1.96-11.86-2.95-18.93-2.95-11.67,0-21.7,3.65-30.1,10.94-8.42,7.29-12.62,16.42-12.62,27.42,0,8.86,2.89,16.44,8.66,22.71,5.77,6.28,13.71,10.38,23.81,12.29l16.31,3.02c4.04.79,7.18,2.23,9.43,4.3,2.24,2.08,3.37,4.63,3.37,7.65,0,3.71-1.52,6.7-4.55,9-3.02,2.31-7.12,3.45-12.27,3.45-7.75,0-13.66-1.93-17.75-5.8-4.1-3.87-6.42-8.78-6.98-14.72l-24.4,5.88c1.01,9.87,5.64,18.7,13.88,26.49,8.24,7.8,19.87,11.7,34.91,11.7,13.45,0,24.16-3.79,32.13-11.35,7.96-7.57,11.94-16.35,11.94-26.33,0-8.75-2.99-16.41-9-22.96Z"/><path d="M1477.68,420.13h-5.82v-2.98h14.85v2.98h-5.82v15.29h-3.21v-15.29Z"/><path d="M1490.06,417.16h3.42l5.56,8.64,5.56-8.64h3.42v18.27h-3.21v-13.1l-5.77,8.61h-.1l-5.72-8.56v13.05h-3.16v-18.27Z"/></g></svg>